<svg xmlns="http://www.w3.org/2000/svg" viewBox="0 0 100 130">
  <defs>
    <clipPath id="pin-clip">
      <path d="M63.1,6.6 A34,34 0 1,0 36.9,6.6 L50,126 Z"/>
    </clipPath>
  </defs>

  <!-- Pin fill -->
  <path d="M63.1,6.6 A34,34 0 1,0 36.9,6.6 L50,126 Z" fill="#0f0d1a"/>

  <!-- Funnel lines clipped to pin shape -->
  <g clip-path="url(#pin-clip)">
    <!-- Gray input lines (top → mid) -->
    <line x1="38.5" y1="6"  x2="50" y2="124" stroke="#3c3a52" stroke-width="1.3"/>
    <line x1="30.7" y1="10" x2="50" y2="124" stroke="#3c3a52" stroke-width="1.3"/>
    <line x1="25"   y1="15" x2="50" y2="124" stroke="#3c3a52" stroke-width="1.3"/>
    <line x1="21.2" y1="20" x2="50" y2="124" stroke="#3c3a52" stroke-width="1.3"/>
    <line x1="18.6" y1="25" x2="50" y2="124" stroke="#3c3a52" stroke-width="1.3"/>
    <line x1="17"   y1="30" x2="50" y2="124" stroke="#3c3a52" stroke-width="1.3"/>
    <line x1="16.1" y1="35" x2="50" y2="124" stroke="#3c3a52" stroke-width="1.3"/>
    <line x1="16"   y1="38" x2="50" y2="124" stroke="#3c3a52" stroke-width="1.3"/>
    <line x1="16.1" y1="41" x2="50" y2="124" stroke="#3c3a52" stroke-width="1.3"/>
    <!-- Purple signal lines (bottom of circle = extracted signals) -->
    <line x1="17"   y1="46" x2="50" y2="124" stroke="#7c6af7" stroke-width="2.1"/>
    <line x1="19"   y1="52" x2="50" y2="124" stroke="#7c6af7" stroke-width="2.1"/>
    <line x1="22.5" y1="58" x2="50" y2="124" stroke="#7c6af7" stroke-width="2.1"/>
    <line x1="28.1" y1="64" x2="50" y2="124" stroke="#7c6af7" stroke-width="2.1"/>
    <line x1="36"   y1="69" x2="50" y2="124" stroke="#7c6af7" stroke-width="2.1"/>
  </g>

  <!-- Pin outline -->
  <path d="M63.1,6.6 A34,34 0 1,0 36.9,6.6 L50,126 Z"
        fill="none" stroke="#7c6af7" stroke-width="2.5" stroke-linejoin="round"/>

  <!-- Convergence dot at tip -->
  <circle cx="50" cy="124" r="3.8" fill="#7c6af7"/>
</svg>
